<?xml version="1.0" encoding="UTF-8"?>
<svg version="1.1" xmlns="http://www.w3.org/2000/svg" width="1024" height="1024">
<path d="M0 0 C337.92 0 675.84 0 1024 0 C1024 337.92 1024 675.84 1024 1024 C686.08 1024 348.16 1024 0 1024 C0 686.08 0 348.16 0 0 Z " fill="#050809" transform="translate(0,0)"/>
<path d="M0 0 C1.0842627 0.28713867 2.16852539 0.57427734 3.28564453 0.87011719 C41.78662353 11.2727477 79.29459388 26.96710337 112 50 C113.15457569 50.79611301 114.30952467 51.59168493 115.46484375 52.38671875 C124.01424964 58.32514185 132.10948744 64.77221446 140.10644531 71.43115234 C141.79581018 72.83082468 143.49991029 74.20903102 145.2109375 75.58203125 C153.74627043 82.54475196 161.51283977 90.30034994 169.3125 98.0625 C169.87257751 98.61731049 170.43265503 99.17212097 171.00970459 99.7437439 C178.14591524 106.8280458 184.76694501 114.09182631 191 122 C192.03626607 123.26661594 193.07500514 124.5312163 194.1171875 125.79296875 C236.57345638 177.8099718 263.50342921 242.53399645 272 309 C272.11714355 309.89203125 272.23428711 310.7840625 272.35498047 311.703125 C277.9191237 356.41469496 274.21817475 403.25754687 262.9375 446.8125 C262.74436218 447.56157623 262.55122437 448.31065247 262.35223389 449.08242798 C250.64454352 494.16411308 230.2580521 538.38626156 201.4453125 575.15332031 C200.00285198 576.99635602 198.57817335 578.85202803 197.15625 580.7109375 C192.11558985 587.2620363 186.8814977 593.5033718 181.25390625 599.5625 C179.34357219 601.62844186 177.5067003 603.72950579 175.6875 605.875 C168.71740668 613.88565228 161.03499258 621.47384483 152.9375 628.33984375 C150.67711085 630.27666913 148.50149328 632.29539882 146.3125 634.3125 C140.47407797 639.56619387 134.29353271 644.31377897 128 649 C127.33468262 649.50047852 126.66936523 650.00095703 125.98388672 650.51660156 C115.14073355 658.65084588 103.96369422 665.9099261 92.23486328 672.70117188 C90.29048527 673.83117963 88.3596391 674.97978177 86.43359375 676.140625 C50.46093147 697.43851891 7.98220907 712.97440792 -33.53955078 718.65136719 C-35.96230649 718.99465903 -38.36735013 719.39726326 -40.77734375 719.8203125 C-60.8482496 723.25851738 -81.64757893 724.65110945 -102 724 C-102.72719238 723.98598145 -103.45438477 723.97196289 -104.20361328 723.95751953 C-133.86946468 723.36285378 -164.64977661 718.85515452 -193 710 C-194.87742388 709.48360836 -196.75486162 708.96726645 -198.63256836 708.4519043 C-235.43641264 698.11954312 -271.65689195 680.90364125 -303 659 C-303.60859863 658.57686523 -304.21719727 658.15373047 -304.84423828 657.71777344 C-311.62968118 652.98607945 -318.26084656 648.12504585 -324.66796875 642.88671875 C-327.84102601 640.31957192 -331.10836802 637.88131791 -334.3828125 635.4453125 C-335.18332031 634.72988281 -335.18332031 634.72988281 -336 634 C-336 633.34 -336 632.68 -336 632 C-336.59369385 631.72776611 -337.1873877 631.45553223 -337.79907227 631.17504883 C-339.94880401 630.02733292 -341.44695845 628.86124266 -343.21484375 627.19921875 C-343.81232422 626.64057129 -344.40980469 626.08192383 -345.02539062 625.50634766 C-345.97188477 624.60601807 -345.97188477 624.60601807 -346.9375 623.6875 C-347.59556641 623.06665527 -348.25363281 622.44581055 -348.93164062 621.80615234 C-357.97517234 613.23390938 -367.04624008 604.60944056 -375 595 C-375.4424707 594.47664062 -375.88494141 593.95328125 -376.34082031 593.4140625 C-384.75310452 583.45200389 -392.2959101 573.07510779 -399.51269531 562.22070312 C-400.85972751 560.20944166 -402.23078453 558.2186043 -403.6171875 556.234375 C-420.98900217 531.19135378 -434.07515159 502.72751756 -444 474 C-444.31807617 473.08686035 -444.63615234 472.1737207 -444.96386719 471.23291016 C-448.63909844 460.56245035 -451.67619156 449.80065114 -454.25 438.8125 C-454.48420654 437.81686035 -454.71841309 436.8212207 -454.9597168 435.79541016 C-458.36774003 420.65054103 -460.36800162 405.26883569 -461.93530273 389.83789062 C-462.18828726 387.3673118 -462.45610903 384.89862255 -462.72460938 382.4296875 C-464.35224029 366.96757738 -464.27052998 351.82537539 -463.25 336.3125 C-463.20709839 335.66035522 -463.16419678 335.00821045 -463.11999512 334.33630371 C-461.02337355 303.19800712 -455.76630237 272.67593747 -446 243 C-445.73606445 242.19046875 -445.47212891 241.3809375 -445.20019531 240.546875 C-439.23504456 222.41623757 -431.82910502 204.89282808 -423.01806641 187.96240234 C-421.96128167 185.9253674 -420.92379769 183.87915964 -419.88671875 181.83203125 C-407.16716674 156.98029054 -390.53407437 133.12447286 -371.484375 112.6953125 C-369.52798563 110.5728146 -367.6337155 108.42398495 -365.75 106.23828125 C-361.76159384 101.66568204 -357.54167505 97.34960701 -353.25 93.0625 C-352.45505127 92.26835693 -351.66010254 91.47421387 -350.84106445 90.65600586 C-345.96119876 85.82678075 -341.03893021 81.28800651 -335.625 77.0625 C-333.1270616 75.09983411 -330.72788865 73.06009943 -328.32836914 70.98022461 C-305.55260347 51.3017733 -278.80667384 35.51373049 -251.46582031 23.1262207 C-249.63656651 22.29074072 -247.8139837 21.44062198 -245.99511719 20.58276367 C-226.10088294 11.2359293 -205.29971359 4.34067745 -184 -1 C-183.06833008 -1.23557617 -182.13666016 -1.47115234 -181.17675781 -1.71386719 C-122.73809282 -16.19442716 -58.13468212 -15.4486286 0 0 Z " fill="#07090A" transform="translate(607,150)"/>
<path d="M0 0 C1.0842627 0.28713867 2.16852539 0.57427734 3.28564453 0.87011719 C41.78662353 11.2727477 79.29459388 26.96710337 112 50 C113.15457569 50.79611301 114.30952467 51.59168493 115.46484375 52.38671875 C124.01424964 58.32514185 132.10948744 64.77221446 140.10644531 71.43115234 C141.79581018 72.83082468 143.49991029 74.20903102 145.2109375 75.58203125 C153.74627043 82.54475196 161.51283977 90.30034994 169.3125 98.0625 C169.87257751 98.61731049 170.43265503 99.17212097 171.00970459 99.7437439 C178.14591524 106.8280458 184.76694501 114.09182631 191 122 C192.03626607 123.26661594 193.07500514 124.5312163 194.1171875 125.79296875 C236.57345638 177.8099718 263.50342921 242.53399645 272 309 C272.11714355 309.89203125 272.23428711 310.7840625 272.35498047 311.703125 C277.9191237 356.41469496 274.21817475 403.25754687 262.9375 446.8125 C262.74436218 447.56157623 262.55122437 448.31065247 262.35223389 449.08242798 C250.64454352 494.16411308 230.2580521 538.38626156 201.4453125 575.15332031 C200.00285198 576.99635602 198.57817335 578.85202803 197.15625 580.7109375 C192.11558985 587.2620363 186.8814977 593.5033718 181.25390625 599.5625 C179.34357219 601.62844186 177.5067003 603.72950579 175.6875 605.875 C168.71740668 613.88565228 161.03499258 621.47384483 152.9375 628.33984375 C150.67711085 630.27666913 148.50149328 632.29539882 146.3125 634.3125 C140.47407797 639.56619387 134.29353271 644.31377897 128 649 C127.33468262 649.50047852 126.66936523 650.00095703 125.98388672 650.51660156 C115.14073355 658.65084588 103.96369422 665.9099261 92.23486328 672.70117188 C90.29048527 673.83117963 88.3596391 674.97978177 86.43359375 676.140625 C50.46093147 697.43851891 7.98220907 712.97440792 -33.53955078 718.65136719 C-35.96230649 718.99465903 -38.36735013 719.39726326 -40.77734375 719.8203125 C-60.8482496 723.25851738 -81.64757893 724.65110945 -102 724 C-102.72719238 723.98598145 -103.45438477 723.97196289 -104.20361328 723.95751953 C-133.86946468 723.36285378 -164.64977661 718.85515452 -193 710 C-194.87742388 709.48360836 -196.75486162 708.96726645 -198.63256836 708.4519043 C-235.43641264 698.11954312 -271.65689195 680.90364125 -303 659 C-303.60859863 658.57686523 -304.21719727 658.15373047 -304.84423828 657.71777344 C-311.62968118 652.98607945 -318.26084656 648.12504585 -324.66796875 642.88671875 C-327.84102601 640.31957192 -331.10836802 637.88131791 -334.3828125 635.4453125 C-335.18332031 634.72988281 -335.18332031 634.72988281 -336 634 C-336 633.34 -336 632.68 -336 632 C-336.59369385 631.72776611 -337.1873877 631.45553223 -337.79907227 631.17504883 C-339.94880401 630.02733292 -341.44695845 628.86124266 -343.21484375 627.19921875 C-343.81232422 626.64057129 -344.40980469 626.08192383 -345.02539062 625.50634766 C-345.97188477 624.60601807 -345.97188477 624.60601807 -346.9375 623.6875 C-347.59556641 623.06665527 -348.25363281 622.44581055 -348.93164062 621.80615234 C-357.97517234 613.23390938 -367.04624008 604.60944056 -375 595 C-375.4424707 594.47664062 -375.88494141 593.95328125 -376.34082031 593.4140625 C-384.75310452 583.45200389 -392.2959101 573.07510779 -399.51269531 562.22070312 C-400.85972751 560.20944166 -402.23078453 558.2186043 -403.6171875 556.234375 C-420.98900217 531.19135378 -434.07515159 502.72751756 -444 474 C-444.31807617 473.08686035 -444.63615234 472.1737207 -444.96386719 471.23291016 C-448.63909844 460.56245035 -451.67619156 449.80065114 -454.25 438.8125 C-454.48420654 437.81686035 -454.71841309 436.8212207 -454.9597168 435.79541016 C-458.36774003 420.65054103 -460.36800162 405.26883569 -461.93530273 389.83789062 C-462.18828726 387.3673118 -462.45610903 384.89862255 -462.72460938 382.4296875 C-464.35224029 366.96757738 -464.27052998 351.82537539 -463.25 336.3125 C-463.20709839 335.66035522 -463.16419678 335.00821045 -463.11999512 334.33630371 C-461.02337355 303.19800712 -455.76630237 272.67593747 -446 243 C-445.73606445 242.19046875 -445.47212891 241.3809375 -445.20019531 240.546875 C-439.23504456 222.41623757 -431.82910502 204.89282808 -423.01806641 187.96240234 C-421.96128167 185.9253674 -420.92379769 183.87915964 -419.88671875 181.83203125 C-407.16716674 156.98029054 -390.53407437 133.12447286 -371.484375 112.6953125 C-369.52798563 110.5728146 -367.6337155 108.42398495 -365.75 106.23828125 C-361.76159384 101.66568204 -357.54167505 97.34960701 -353.25 93.0625 C-352.45505127 92.26835693 -351.66010254 91.47421387 -350.84106445 90.65600586 C-345.96119876 85.82678075 -341.03893021 81.28800651 -335.625 77.0625 C-333.1270616 75.09983411 -330.72788865 73.06009943 -328.32836914 70.98022461 C-305.55260347 51.3017733 -278.80667384 35.51373049 -251.46582031 23.1262207 C-249.63656651 22.29074072 -247.8139837 21.44062198 -245.99511719 20.58276367 C-226.10088294 11.2359293 -205.29971359 4.34067745 -184 -1 C-183.06833008 -1.23557617 -182.13666016 -1.47115234 -181.17675781 -1.71386719 C-122.73809282 -16.19442716 -58.13468212 -15.4486286 0 0 Z M-336.84375 142.96484375 C-342.57068691 149.35362007 -347.79878869 156.1818146 -353 163 C-353.51900879 163.67853027 -354.03801758 164.35706055 -354.57275391 165.05615234 C-363.48097076 176.79177156 -370.97587513 189.06047317 -378 202 C-378.62745117 203.13163574 -379.25490234 204.26327148 -379.90136719 205.42919922 C-384.78126612 214.30656177 -388.88006888 223.34263008 -392.625 232.75 C-393.0452092 233.79681442 -393.0452092 233.79681442 -393.47390747 234.86477661 C-397.84094787 245.75901076 -401.9753142 256.6483451 -405 268 C-405.25330078 268.94858887 -405.50660156 269.89717773 -405.76757812 270.87451172 C-409.24780351 284.14339513 -412.06345175 297.40255782 -413.65136719 311.03393555 C-413.91934049 313.31377282 -414.21094701 315.59084183 -414.51269531 317.86645508 C-415.92805194 328.931756 -416.311189 339.85345865 -416.26074219 351.00317383 C-416.25004832 353.79986436 -416.26069752 356.59590717 -416.2734375 359.39257812 C-416.28826725 376.74556654 -414.90933186 393.8609654 -411.75 410.9375 C-411.53456543 412.11642822 -411.31913086 413.29535645 -411.09716797 414.51000977 C-409.01487858 425.52947332 -406.28602762 436.28181595 -403 447 C-402.73461426 447.87172852 -402.46922852 448.74345703 -402.19580078 449.64160156 C-396.26728724 468.85523002 -388.37885334 487.2258589 -379 505 C-378.38535889 506.17344971 -378.38535889 506.17344971 -377.75830078 507.37060547 C-371.56276918 519.13453477 -364.8762742 530.28595054 -357 541 C-356.23816406 542.03785645 -356.23816406 542.03785645 -355.4609375 543.09667969 C-344.56860911 557.83217567 -332.78818542 571.37780509 -319.875 584.375 C-318.51580444 585.74821411 -318.51580444 585.74821411 -317.12915039 587.14916992 C-311.05890411 593.19086842 -304.70436716 598.67685663 -298 604 C-296.68717158 605.07222546 -295.37577923 606.14621383 -294.06640625 607.22265625 C-286.63925351 613.2654183 -279.11642405 618.89796902 -271 624 C-270.37351562 624.40009277 -269.74703125 624.80018555 -269.1015625 625.21240234 C-222.28237146 655.04618284 -170.30798857 671.97819857 -115 676 C-114.25250488 676.05784668 -113.50500977 676.11569336 -112.73486328 676.17529297 C-86.95229616 678.16037981 -61.10670906 676.65297357 -35.75048828 671.54882812 C-33.04529194 671.00903748 -30.33477612 670.51072533 -27.62109375 670.015625 C-4.86858306 665.66707786 18.11332229 658.10392823 38.953125 647.98144531 C41.15127166 646.92746755 43.36899294 645.92619326 45.59375 644.9296875 C62.8426498 637.12337073 78.88686287 627.38755178 94 616 C94.54172852 615.59571777 95.08345703 615.19143555 95.64160156 614.77490234 C118.10890934 597.97436366 138.56366909 579.02324026 156 557 C156.80179688 555.99324219 157.60359375 554.98648438 158.4296875 553.94921875 C168.83569992 540.74573792 177.77488006 526.64866528 186 512 C186.43957031 511.21947266 186.87914062 510.43894531 187.33203125 509.63476562 C213.80386496 462.14566914 226.24555994 409.18961098 226.1875 355.0625 C226.18722809 354.11078918 226.18695618 353.15907837 226.18667603 352.17852783 C226.16809935 338.04331639 225.93647277 324.02503286 224 310 C223.90348145 309.28521484 223.80696289 308.57042969 223.70751953 307.83398438 C223.00090925 302.84478207 222.05644556 297.92600821 221 293 C220.80954102 292.10152344 220.61908203 291.20304688 220.42285156 290.27734375 C206.88254701 227.60388478 175.78728482 172.63299238 130.625 127.4375 C129.75617187 126.55642578 128.88734375 125.67535156 127.9921875 124.76757812 C121.97810091 118.74014667 115.66472082 113.29251448 109 108 C107.47809159 106.75130916 105.9570908 105.50151022 104.4375 104.25 C90.98194292 93.57469209 77.05389567 84.25916535 62 76 C61.24138672 75.5762207 60.48277344 75.15244141 59.70117188 74.71582031 C24.76474067 55.24182845 -14.36018035 42.96063659 -54 38 C-54.93215332 37.88285645 -55.86430664 37.76571289 -56.82470703 37.64501953 C-145.34958406 27.15422146 -238.266112 54.61996122 -336.84375 142.96484375 Z " fill="#FEC71F" transform="translate(607,150)"/>
<path d="M0 0 C0.495 0.99 0.495 0.99 1 2 C0.29296875 4.06640625 0.29296875 4.06640625 -0.8125 6.5625 C-4.11833433 14.50790181 -5.53441231 22.42895394 -6 31 C-6.03931641 31.6899707 -6.07863281 32.37994141 -6.11914062 33.09082031 C-7.25660071 56.02317233 -1.06057648 74.67968344 12.65234375 93.046875 C14 95 14 95 15 98 C16.36705078 97.34644531 16.36705078 97.34644531 17.76171875 96.6796875 C31.87807515 90.1231527 48.11167844 83.74526437 63.875 83.9375 C65.32519531 83.95103516 65.32519531 83.95103516 66.8046875 83.96484375 C67.52914062 83.97644531 68.25359375 83.98804688 69 84 C69.14695312 83.22140625 69.29390625 82.4428125 69.4453125 81.640625 C70.96560949 74.05661475 72.86507996 66.66378796 75.0625 59.25 C75.44849365 57.92790527 75.44849365 57.92790527 75.84228516 56.57910156 C76.09155762 55.7537793 76.34083008 54.92845703 76.59765625 54.078125 C76.81945557 53.33981445 77.04125488 52.60150391 77.26977539 51.84082031 C78 50 78 50 80 48 C81.13702522 51.74645718 82.25730409 55.49773516 83.375 59.25 C83.69210937 60.29414063 84.00921875 61.33828125 84.3359375 62.4140625 C86.45203356 69.55588669 87.94967909 76.62625096 89 84 C90.1034375 83.96648437 91.206875 83.93296875 92.34375 83.8984375 C97.50118642 83.90523553 102.43600651 84.70185307 107.5 85.625 C108.46180176 85.8003125 109.42360352 85.975625 110.41455078 86.15625 C121.96040064 88.39823714 132.65248231 92.39509458 143 98 C143.36351562 97.20916016 143.36351562 97.20916016 143.734375 96.40234375 C145.03394353 93.93557014 146.52213543 91.6480856 148.0715332 89.33227539 C162.63867872 67.45590542 167.5198156 44.51978376 162.75 18.5625 C161.54076245 13.43486768 159.8824542 8.63704767 157.671875 3.85546875 C157.45015625 3.24316406 157.2284375 2.63085938 157 2 C157.33 1.34 157.66 0.68 158 0 C176.17555227 16.3007102 188.71541469 39.89934422 190.14086914 64.42358398 C190.84672925 83.0643056 188.69275367 100.83252444 178.5625 117 C178.046875 117.99 177.53125 118.98 177 120 C178.19124364 123.55920355 180.58592448 125.75103571 183.1875 128.375 C190.89332114 136.78925953 196.91454204 147.88448464 197.0234375 159.5 C196.65525127 166.16610854 194.92733883 172.29069814 192.9375 178.640625 C190.87902805 186.01681616 190.81153406 193.23663886 190.7277832 200.85107422 C190.71157425 202.02757538 190.6953653 203.20407654 190.67866516 204.41622925 C190.53892808 215.21998233 190.45900433 226.02460584 190.39974689 236.8290844 C190.35515196 244.80234379 190.27789292 252.77388737 190.15816242 260.74637973 C190.07658257 266.36951252 190.03358342 271.99217622 190.01844472 277.61587536 C190.00831235 280.96815258 189.97612355 284.31654166 189.91213417 287.66848373 C189.84408693 291.41046385 189.83915113 295.14766037 189.84887695 298.89013672 C189.81449524 299.98757202 189.78011353 301.08500732 189.74468994 302.21569824 C189.81559689 307.01748794 190.0710399 309.88067916 193.20096397 313.65198135 C195.71238661 315.92465043 198.28530863 317.97784994 201 320 C201.99157899 320.89616353 202.9690159 321.80881646 203.91796875 322.75 C204.66691406 323.4925 205.41585938 324.235 206.1875 325 C209.9197386 328.7555287 213.12892714 332.67748211 216.28515625 336.91796875 C218.05534334 339.06719362 219.91466847 340.73382474 222.0625 342.5 C229.06208681 348.37586204 234.95747172 357.46706753 236.41601562 366.60693359 C236.60877697 369.41769837 236.65730462 372.18284739 236.625 375 C236.61662109 376.0096582 236.60824219 377.01931641 236.59960938 378.05957031 C236.34018948 386.76669545 234.43144339 393.93439467 230.93701172 401.85498047 C229.92710534 404.16687142 228.99367024 406.50146056 228.06640625 408.84765625 C222.23466464 423.43130887 214.80104037 435.77335004 205 448 C204.34 447.67 203.68 447.34 203 447 C203.32613281 446.29617188 203.65226562 445.59234375 203.98828125 444.8671875 C207.45584288 437.03193025 209.56274898 429.43603862 211 421 C211.21785156 419.73027344 211.43570312 418.46054687 211.66015625 417.15234375 C213.80704551 403.37846204 213.78375801 388.25040921 209 375 C206.85484511 372.27110728 206.85484511 372.27110728 204 370 C202.65499869 368.23260158 201.34598965 366.43756172 200.0625 364.625 C194.97103089 356.80586433 194.97103089 356.80586433 188 351 C187.88785156 351.99902344 187.77570313 352.99804688 187.66015625 354.02734375 C184.11902766 378.55658755 165.42791672 401.6182306 146.33374023 416.2109375 C130.23424278 428.0907994 112.72020497 435.09933319 93 438 C92.12472656 438.13148438 91.24945312 438.26296875 90.34765625 438.3984375 C81.58008952 439.53868344 72.96101979 439.11709239 64.25 437.75 C63.37947998 437.61360107 62.50895996 437.47720215 61.61206055 437.33666992 C31.30600547 432.36438624 4.68528398 415.81608026 -13.30859375 390.7890625 C-20.94531907 379.52878076 -30 364.91405264 -30 351 C-35.81252123 355.35939092 -39.20377943 360.1267301 -43.078125 366.24609375 C-44.74466188 368.63411915 -45.96440456 370.00341924 -48.3125 371.625 C-53.93342977 376.59233329 -54.35015922 384.84855417 -55 392 C-55.98548117 409.49657965 -53.64585454 425.42815976 -48 442 C-47.33333333 444 -46.66666667 446 -46 448 C-55.55665364 439.04063721 -61.7673743 428.88029576 -67 417 C-67.70455322 415.43717285 -67.70455322 415.43717285 -68.42333984 413.84277344 C-76.19178314 396.30722176 -82.66776513 378.12717838 -76.92578125 358.86328125 C-73.16704261 350.05342928 -66.36157321 343.8715943 -59.50390625 337.39453125 C-56.8559727 334.88178784 -54.56644113 332.35333963 -52.4375 329.375 C-47.73249361 322.91180701 -40.18022382 314.59011191 -33 311 C-32.92959946 295.49992749 -32.87686095 279.99986712 -32.84456348 264.49967194 C-32.82916177 257.30099612 -32.80820216 250.10242023 -32.77368164 242.90380859 C-32.74357225 236.62200613 -32.72437649 230.34027612 -32.71773452 224.05840349 C-32.71385823 220.73892943 -32.70326374 217.41982505 -32.68280983 214.10038757 C-32.45197459 192.13906419 -32.45197459 192.13906419 -37.08161926 170.79211426 C-40.67947974 159.85369066 -37.36490155 148.44522038 -32.4375 138.5625 C-28.85384218 132.21171399 -24.07588998 127.18623542 -19 122 C-20.06249029 119.19649838 -21.23185659 116.54142649 -22.5859375 113.86328125 C-33.9124993 91.38327105 -35.36868965 66.458882 -27.84326172 42.40869141 C-25.56797429 35.90956409 -22.45276804 29.94069072 -19 24 C-18.52949219 23.17757813 -18.05898438 22.35515625 -17.57421875 21.5078125 C-12.80186277 13.82136304 -6.39389369 6.39389369 0 0 Z " fill="#FEC620" transform="translate(433,258)"/>
<path d="M0 0 C0.33 0 0.66 0 1 0 C2.59809246 13.6968845 3.40124575 27.21146492 3.375 41 C3.37545319 41.93945465 3.37590637 42.8789093 3.37637329 43.84683228 C3.33727783 71.76598625 0.84953607 100.57945546 -6.6875 127.5625 C-6.91244141 128.39201172 -7.13738281 129.22152344 -7.36914062 130.07617188 C-7.90609076 132.05260533 -8.45195744 134.02661357 -9 136 C-9.89805511 133.05001503 -10.02745385 130.91534898 -9.51171875 127.8828125 C-9.38216797 127.11066406 -9.25261719 126.33851563 -9.11914062 125.54296875 C-8.97669922 124.74503906 -8.83425781 123.94710937 -8.6875 123.125 C-8.55666016 122.33480469 -8.42582031 121.54460937 -8.29101562 120.73046875 C-7.53095579 116.31698119 -6.45092191 112.24598794 -5 108 C-4.83201531 104.74955291 -4.83201531 104.74955291 -5 102 C-4.34 102 -3.68 102 -3 102 C-2.94593994 101.22398437 -2.89187988 100.44796875 -2.83618164 99.6484375 C-2.41247299 93.83361094 -1.9171594 88.04182571 -1.24609375 82.25 C0.42733945 67.49650805 1.28682995 52.9724659 1.25 38.125 C1.24904327 37.33222656 1.24808655 36.53945313 1.24710083 35.72265625 C1.22460723 27.74851858 1.00718267 19.92048452 0 12 C-0.06094621 9.81324994 -0.08764316 7.62495471 -0.0625 5.4375 C-0.05347656 4.40496094 -0.04445313 3.37242187 -0.03515625 2.30859375 C-0.02355469 1.54675781 -0.01195312 0.78492188 0 0 Z " fill="#FAF026" transform="translate(878,463)"/>
<path d="M0 0 C0.66 0 1.32 0 2 0 C3.078125 1.44262695 3.078125 1.44262695 4.25 3.48828125 C4.68828125 4.2469751 5.1265625 5.00566895 5.578125 5.78735352 C6.28195312 7.03730103 6.28195312 7.03730103 7 8.3125 C7.48984375 9.17480225 7.9796875 10.03710449 8.484375 10.92553711 C10.00085023 13.61088056 11.50213449 16.3042394 13 19 C13.43441406 19.77408203 13.86882813 20.54816406 14.31640625 21.34570312 C24.19070505 39.0358654 31.94826563 57.72463673 38.6875 76.8125 C39.02668457 77.76672852 39.36586914 78.72095703 39.71533203 79.70410156 C40.01938965 80.59194336 40.32344727 81.47978516 40.63671875 82.39453125 C40.90186279 83.16643799 41.16700684 83.93834473 41.44018555 84.73364258 C42.05646551 87.22859545 42.09861148 89.4397747 42 92 C41.01 92.495 41.01 92.495 40 93 C39.87882813 92.33613281 39.75765625 91.67226563 39.6328125 90.98828125 C38.33387417 82.79611378 38.33387417 82.79611378 34 76 C34.375 73.375 34.375 73.375 35 71 C34.34 71 33.68 71 33 71 C33 69.02 33 67.04 33 65 C32.01 64.67 31.02 64.34 30 64 C29.26953125 62.15234375 29.26953125 62.15234375 28.8125 59.9375 C28.65394531 59.20402344 28.49539063 58.47054687 28.33203125 57.71484375 C28.16767578 56.86599609 28.16767578 56.86599609 28 56 C26.68 55.67 25.36 55.34 24 55 C24 54.34 24 53.68 24 53 C24.66 53 25.32 53 26 53 C25.71125 52.22914063 25.4225 51.45828125 25.125 50.6640625 C24.75375 49.66117187 24.3825 48.65828125 24 47.625 C23.62875 46.62726563 23.2575 45.62953125 22.875 44.6015625 C22 42 22 42 22 40 C20.515 39.505 20.515 39.505 19 39 C19.33 37.68 19.66 36.36 20 35 C18.515 34.505 18.515 34.505 17 34 C16.44140625 32.1953125 16.44140625 32.1953125 16 30 C15.34630874 28.60860897 14.65784969 27.23307863 13.9375 25.875 C12 22.22064057 12 22.22064057 12 20 C11.36964844 19.75636719 10.73929688 19.51273437 10.08984375 19.26171875 C7.46390288 17.67633762 7.29199495 16.7355108 6.5625 13.8125 C5.17732327 9.04133572 2.97831232 5.94425145 0 2 C0 1.34 0 0.68 0 0 Z " fill="#F5E323" transform="translate(824,311)"/>
<path d="M0 0 C3.37591285 1.12530428 4.28446799 2.16053617 6.5625 4.8125 C7.46162109 5.84310547 7.46162109 5.84310547 8.37890625 6.89453125 C9.89648749 8.86555845 10.97902958 10.73964261 12 13 C12.66 13 13.32 13 14 13 C15.54573315 14.79822342 16.9654747 16.59836424 18.375 18.5 C18.80546631 19.07081299 19.23593262 19.64162598 19.67944336 20.22973633 C20.6180171 21.47609943 21.55367169 22.7246647 22.48681641 23.97509766 C24.08077519 26.10809123 25.68590403 28.2323352 27.29296875 30.35546875 C28.38318877 31.79919511 29.4730389 33.24320086 30.5625 34.6875 C31.0869873 35.38230469 31.61147461 36.07710938 32.15185547 36.79296875 C32.63928223 37.44265625 33.12670898 38.09234375 33.62890625 38.76171875 C34.06275635 39.33881592 34.49660645 39.91591309 34.94360352 40.51049805 C36 42 36 42 37 44 C37.99 44.66 38.98 45.32 40 46 C39.67 46.99 39.34 47.98 39 49 C39.66 49 40.32 49 41 49 C41.268125 49.61875 41.53625 50.2375 41.8125 50.875 C42.95556848 53.2995233 42.95556848 53.2995233 46 55 C46.5534668 56.85839844 46.5534668 56.85839844 47 59 C47.67381261 60.44177206 48.392527 61.8630489 49.14453125 63.265625 C49.57443359 64.07386719 50.00433594 64.88210938 50.44726562 65.71484375 C50.89779297 66.55144531 51.34832031 67.38804687 51.8125 68.25 C52.69481338 69.9006127 53.57633207 71.55165046 54.45703125 73.203125 C54.88709473 74.00556641 55.3171582 74.80800781 55.76025391 75.63476562 C57.25548479 78.48742352 58.65079257 81.38216869 60.0144043 84.29980469 C60.95714723 86.09749495 60.95714723 86.09749495 62.61645508 87.59863281 C64 89 64 89 64 91 C62.234375 90.9453125 62.234375 90.9453125 60 90 C58.56172253 87.62502922 57.39396077 85.38683466 56.25 82.875 C55.54451512 81.40160233 54.8374468 79.92896192 54.12890625 78.45703125 C53.59547607 77.33482178 53.59547607 77.33482178 53.05126953 76.18994141 C40.4470085 49.93350355 22.48472191 23.35893798 1.2421875 3.34375 C0 2 0 2 0 0 Z " fill="#F2E324" transform="translate(744,283)"/>
<path d="M0 0 C12.81207013 9.68023076 22.66703862 24.92059197 28 40 C28.125 42.8125 28.125 42.8125 28 45 C26.33167423 42.49751135 25.37618326 40.58850813 24.375 37.8125 C24.11460937 37.09707031 23.85421875 36.38164062 23.5859375 35.64453125 C23.39257812 35.10183594 23.19921875 34.55914062 23 34 C22.34 34 21.68 34 21 34 C20.85304688 33.3709375 20.70609375 32.741875 20.5546875 32.09375 C19.03366746 26.28939765 17.07743774 22.18926914 13.20703125 17.59375 C12 16 12 16 12 14 C10.68 14 9.36 14 8 14 C7.67 15.65 7.34 17.3 7 19 C5.25256427 15.74804562 4.08036694 12.44431984 2.9375 8.9375 C2.59589844 7.89464844 2.25429688 6.85179687 1.90234375 5.77734375 C1.60457031 4.86082031 1.30679688 3.94429688 1 3 C0.67 2.01 0.34 1.02 0 0 Z " fill="#F4E024" transform="translate(590,258)"/>
<path d="M0 0 C10.9904194 8.47178162 19.09860017 20.56974441 21 34.5 C21.31909611 40.66032759 19.78927149 46.15194816 18 52 C17.71253906 52.98355469 17.42507813 53.96710938 17.12890625 54.98046875 C16.43736198 57.32642516 15.72831755 59.66525153 15 62 C14.06656445 58.93299749 13.96030128 56.49280191 14.3125 53.3125 C14.43044922 52.13107422 14.43044922 52.13107422 14.55078125 50.92578125 C14.69902344 50.29027344 14.84726562 49.65476562 15 49 C15.99 48.505 15.99 48.505 17 48 C17.49708474 45.61399323 17.79901028 43.41644459 18 41 C18.11601563 40.02353516 18.11601563 40.02353516 18.234375 39.02734375 C18.86608699 29.63940168 15.05445505 20.03724235 9 13 C8.0409375 11.515 8.0409375 11.515 7.0625 10 C5.06183448 6.89491932 5.06183448 6.89491932 2.25 4.25 C1.5075 3.5075 0.765 2.765 0 2 C0 1.34 0 0.68 0 0 Z " fill="#F2DE24" transform="translate(609,380)"/>
<path d="M0 0 C0.99 0 1.98 0 3 0 C3 1.65 3 3.3 3 5 C2.34 5 1.68 5 1 5 C1.00580078 5.89211182 1.01160156 6.78422363 1.01757812 7.70336914 C1.0523599 17.29258024 0.83822239 26.85491053 0.5 36.4375 C0.45159165 37.86262237 0.40341366 39.28775259 0.35546875 40.71289062 C0.23961786 44.14202105 0.12070875 47.57103671 0 51 C-7.32557664 40.01163504 -0.93122585 13.06564351 0 0 Z " fill="#EAC01D" transform="translate(145,470)"/>
<path d="M0 0 C1.78596189 2.67894284 2.39169178 4.0031669 3.0703125 7.01171875 C3.24433594 7.76904297 3.41835938 8.52636719 3.59765625 9.30664062 C3.85869141 10.48516602 3.85869141 10.48516602 4.125 11.6875 C4.30675781 12.48478516 4.48851562 13.28207031 4.67578125 14.10351562 C5.12273427 16.06775651 5.56210416 18.03372014 6 20 C5.34 20 4.68 20 4 20 C3.34 18.02 2.68 16.04 2 14 C0.02463255 14.34786708 0.02463255 14.34786708 -2 15 C-2.33 15.66 -2.66 16.32 -3 17 C-3.33 16.67 -3.66 16.34 -4 16 C-3.58784081 10.12673157 -2.23271642 5.43617912 0 0 Z " fill="#F4D723" transform="translate(512,306)"/>
<path d="M0 0 C1.04779192 3.20586291 0.93536454 5.13337962 -0.0390625 8.34375 C-0.28769043 9.17293945 -0.53631836 10.00212891 -0.79248047 10.85644531 C-1.06721191 11.72881836 -1.34194336 12.60119141 -1.625 13.5 C-1.89844238 14.39041992 -2.17188477 15.28083984 -2.45361328 16.19824219 C-4.57916556 22.98474784 -7.0294192 29.53307189 -10 36 C-11.33767094 31.98698718 -10.21958797 30.40142965 -8.6875 26.5 C-6.61976019 21.08499591 -5.23102269 15.85902569 -4.45703125 10.109375 C-4 8 -4 8 -2 6 C-1.83312552 3.41645782 -1.83312552 3.41645782 -2 1 C-1.34 0.67 -0.68 0.34 0 0 Z " fill="#F4E123" transform="translate(867,600)"/>
<path d="M0 0 C0.33 0 0.66 0 1 0 C1.33 2.97 1.66 5.94 2 9 C2.33 9 2.66 9 3 9 C3.1982842 19.53109421 3.31290989 29.65385845 1 40 C0.67 40 0.34 40 0 40 C0 26.8 0 13.6 0 0 Z " fill="#F3CF20" transform="translate(833,492)"/>
<path d="M0 0 C0.33 0 0.66 0 1 0 C1.20153511 5.09688802 0.58603045 9.14205239 -0.9375 14 C-2.39368178 18.67648342 -3.41033695 23.13372808 -4 28 C-4.66 28 -5.32 28 -6 28 C-6.33 29.65 -6.66 31.3 -7 33 C-8.49881429 29.07675806 -7.47248103 26.21116424 -6.34765625 22.265625 C-6.16867294 21.62759949 -5.98968964 20.98957397 -5.80528259 20.33221436 C-5.2335064 18.30208627 -4.64823021 16.27614102 -4.0625 14.25 C-3.67162835 12.87134795 -3.28164409 11.49244397 -2.89257812 10.11328125 C-1.93865159 6.73920728 -0.97258256 3.36875002 0 0 Z " fill="#F1DF24" transform="translate(826,573)"/>
<path d="M0 0 C0.66 0.33 1.32 0.66 2 1 C-2.9186301 9.98960513 -7.85011581 18.77378834 -14 27 C-14.61328125 25.12109375 -14.61328125 25.12109375 -15 23 C-13.71182656 21.62298702 -12.37195574 20.29355827 -11 19 C-10.31246699 17.34183216 -9.64438717 15.67540664 -9 14 C-8 13 -7 12 -6 11 C-5.855625 10.38125 -5.71125 9.7625 -5.5625 9.125 C-4.77245358 6.14038019 -2.96798416 4.33698119 -1 2 C-0.67 1.34 -0.34 0.68 0 0 Z " fill="#F4DF24" transform="translate(833,683)"/>
<path d="M0 0 C5.51722023 1.4904339 9.73818764 4.1837801 14.4375 7.3125 C15.52514648 8.0230957 15.52514648 8.0230957 16.63476562 8.74804688 C18.76794832 10.149086 20.88628194 11.56979538 23 13 C23.69109863 13.46196777 24.38219727 13.92393555 25.09423828 14.39990234 C26.76720296 15.5467775 28.38938056 16.76710159 30 18 C30 18.66 30 19.32 30 20 C28.35 19.34 26.7 18.68 25 18 C25 17.34 25 16.68 25 16 C23.88625 15.566875 23.88625 15.566875 22.75 15.125 C20.43260203 14.17697356 18.22082885 13.15154089 16 12 C16 11.34 16 10.68 16 10 C15.236875 9.896875 14.47375 9.79375 13.6875 9.6875 C10.67149114 8.91596285 10.11654795 8.15286128 8 6 C6.62604325 5.09103435 5.22900208 4.21612874 3.8125 3.375 C2.52556107 2.60979307 1.24942675 1.82503714 0 1 C0 0.67 0 0.34 0 0 Z " fill="#F6E725" transform="translate(696,187)"/>
<path d="M0 0 C0.66 0.66 1.32 1.32 2 2 C1.57415043 10.69715851 -1.67349422 19.63135543 -4 28 C-4.89805511 25.05001503 -5.02745385 22.91534898 -4.51171875 19.8828125 C-4.38216797 19.11066406 -4.25261719 18.33851563 -4.11914062 17.54296875 C-3.97669922 16.74503906 -3.83425781 15.94710937 -3.6875 15.125 C-3.55666016 14.33480469 -3.42582031 13.54460938 -3.29101562 12.73046875 C-2.53312388 8.32957081 -1.54855889 4.20612939 0 0 Z " fill="#EEDB24" transform="translate(873,571)"/>
<path d="M0 0 C0.33 0.66 0.66 1.32 1 2 C0.30322266 3.92358398 0.30322266 3.92358398 -0.8359375 6.24609375 C-1.24070312 7.08333984 -1.64546875 7.92058594 -2.0625 8.78320312 C-2.495625 9.65912109 -2.92875 10.53503906 -3.375 11.4375 C-4.21753141 13.16468938 -5.05873434 14.8925276 -5.8984375 16.62109375 C-6.27661621 17.3886499 -6.65479492 18.15620605 -7.04443359 18.94702148 C-8.10305607 21.11977805 -8.10305607 21.11977805 -9 24 C-10.4375 25.5625 -10.4375 25.5625 -12 27 C-12.66 27.66 -13.32 28.32 -14 29 C-13.39345765 25.05925866 -12.16896413 22.03486705 -10.3125 18.515625 C-9.77882813 17.49855469 -9.24515625 16.48148438 -8.6953125 15.43359375 C-8.13585937 14.38300781 -7.57640625 13.33242188 -7 12.25 C-6.16082031 10.65091797 -6.16082031 10.65091797 -5.3046875 9.01953125 C-1.15928235 1.15928235 -1.15928235 1.15928235 0 0 Z " fill="#FAEB25" transform="translate(804,640)"/>
<path d="M0 0 C0.66 0.33 1.32 0.66 2 1 C2.65332053 3.82606081 3.17979829 6.57739903 3.625 9.4375 C3.75688721 10.2526709 3.88877441 11.0678418 4.0246582 11.90771484 C4.91057878 17.66763029 5.28224697 23.16689591 5 29 C4.67 29 4.34 29 4 29 C3.01 21.41 2.02 13.82 1 6 C0.34 6 -0.32 6 -1 6 C-0.67 4.02 -0.34 2.04 0 0 Z " fill="#F6E323" transform="translate(873,433)"/>
<path d="M0 0 C6.6 0 13.2 0 20 0 C20 0.33 20 0.66 20 1 C18.35 1 16.7 1 15 1 C15 1.66 15 2.32 15 3 C13.2507786 3.08142927 11.50045458 3.13938541 9.75 3.1875 C8.28820312 3.23970703 8.28820312 3.23970703 6.796875 3.29296875 C4 3 4 3 0 0 Z " fill="#FAB91D" transform="translate(506,871)"/>
<path d="M0 0 C2.64 0.33 5.28 0.66 8 1 C8 1.66 8 2.32 8 3 C8.680625 3.2475 9.36125 3.495 10.0625 3.75 C13.56865083 5.24197908 16.71620368 7.06835511 20 9 C17 10 17 10 15.09887695 9.28735352 C14.40238037 8.90506592 13.70588379 8.52277832 12.98828125 8.12890625 C12.23095703 7.71962891 11.47363281 7.31035156 10.69335938 6.88867188 C9.90767578 6.45103516 9.12199219 6.01339844 8.3125 5.5625 C7.51521484 5.12873047 6.71792969 4.69496094 5.89648438 4.24804688 C3.92589446 3.17425237 1.96090073 2.09135818 0 1 C0 0.67 0 0.34 0 0 Z " fill="#F3E223" transform="translate(648,215)"/>
<path d="M0 0 C0.33 1.32 0.66 2.64 1 4 C1.66 3.67 2.32 3.34 3 3 C1.22054913 7.04420651 -1.39529673 10.46078487 -4 14 C-4.66 13.67 -5.32 13.34 -6 13 C-4.02 8.71 -2.04 4.42 0 0 Z " fill="#EFD524" transform="translate(642,692)"/>
<path d="M0 0 C0.33 0 0.66 0 1 0 C1.22212255 2.74951693 1.42815588 5.49865612 1.625 8.25 C1.68945312 9.02730469 1.75390625 9.80460938 1.8203125 10.60546875 C2.30707097 17.72431144 2.30707097 17.72431144 0 21 C-0.19569589 18.43788925 -0.38180612 15.87567609 -0.5625 13.3125 C-0.61857422 12.59126953 -0.67464844 11.87003906 -0.73242188 11.12695312 C-0.99955159 7.22685936 -1.00887596 3.78888972 0 0 Z " fill="#281D0A" transform="translate(645,646)"/>
<path d="M0 0 C3.39285118 2.99833361 4.84013094 6.57874357 6.71875 10.625 C7.93772132 12.88455659 9.18694231 14.22910645 11 16 C11 16.66 11 17.32 11 18 C9.12011719 17.70678711 9.12011719 17.70678711 7 17 C5.55353692 14.50984914 4.38002203 12.18870999 3.25 9.5625 C2.93417969 8.86833984 2.61835937 8.17417969 2.29296875 7.45898438 C0 2.33206507 0 2.33206507 0 0 Z " fill="#F9EA26" transform="translate(797,356)"/>
<path d="M0 0 C5.40489519 1.52012677 8.98492628 5.27385218 13 9 C12.01 9.495 12.01 9.495 11 10 C7.9375 8.75 7.9375 8.75 5 7 C4.67 6.01 4.34 5.02 4 4 C2.70644173 2.62804426 1.37701298 1.28817344 0 0 Z " fill="#F7E525" transform="translate(727,207)"/>
<path d="M0 0 C0.66 0.33 1.32 0.66 2 1 C-4.22259874 8.8049778 -4.22259874 8.8049778 -9 11 C-9.99 11 -10.98 11 -12 11 C-8.04 7.37 -4.08 3.74 0 0 Z " fill="#FBE225" transform="translate(729,742)"/>
<path d="M0 0 C0.66 0 1.32 0 2 0 C2 0.99 2 1.98 2 3 C2.99 3.33 3.98 3.66 5 4 C5.144375 5.093125 5.28875 6.18625 5.4375 7.3125 C5.88288104 10.93122987 5.88288104 10.93122987 7 14 C6.01 14.495 6.01 14.495 5 15 C4.16260219 12.8765984 3.33019717 10.7512272 2.5 8.625 C1.80390625 6.84996094 1.80390625 6.84996094 1.09375 5.0390625 C0 2 0 2 0 0 Z " fill="#F6E323" transform="translate(809,382)"/>
<path d="M0 0 C6.75 5.625 6.75 5.625 9 9 C8.01 9.33 7.02 9.66 6 10 C6 9.01 6 8.02 6 7 C5.34 7 4.68 7 4 7 C3.67 7.66 3.34 8.32 3 9 C2.01 6.03 1.02 3.06 0 0 Z " fill="#E4CB23" transform="translate(590,258)"/>
<path d="M0 0 C1.32 0.66 2.64 1.32 4 2 C4 2.66 4 3.32 4 4 C4.66 4.33 5.32 4.66 6 5 C6 5.99 6 6.98 6 8 C4.68 8 3.36 8 2 8 C0.93224776 6.03533587 -0.06553465 4.03144641 -1 2 C-0.67 1.34 -0.34 0.68 0 0 Z " fill="#F5B61C" transform="translate(194,687)"/>
<path d="M0 0 C4.56048012 3.61251516 8.01665146 6.98797445 11 12 C5.61451852 9.58581865 2.67756359 5.47271247 -1 1 C-0.67 0.67 -0.34 0.34 0 0 Z " fill="#F3E426" transform="translate(788,262)"/>
<path d="M0 0 C0.93423645 3.01031744 1.04449911 3.86650268 0 7 C-1.4375 8.5625 -1.4375 8.5625 -3 10 C-3.66 10.66 -4.32 11.32 -5 12 C-4.42365861 7.24518354 -2.44931479 4.02951788 0 0 Z " fill="#F5DE23" transform="translate(795,657)"/>
<path d="M0 0 C5.23175837 -0.38281159 8.37802694 0.78145293 13 3 C10 4 10 4 8.0625 3.5 C5.68227266 2.92297519 4.30293321 3.25977147 2 4 C2 3.01 2 2.02 2 1 C1.34 0.67 0.68 0.34 0 0 Z " fill="#F3DD23" transform="translate(546,346)"/>
<path d="M0 0 C0.33 0 0.66 0 1 0 C1.95261487 4.76307437 2.08333357 9.1666528 2 14 C1.67 12.68 1.34 11.36 1 10 C0.34 10 -0.32 10 -1 10 C-0.67 6.7 -0.34 3.4 0 0 Z " fill="#F8B51D" transform="translate(146,529)"/>
<path d="M0 0 C2.78637633 4.1795645 1.79562512 6.14668677 1 11 C0.01 11 -0.98 11 -2 11 C-1.34 7.37 -0.68 3.74 0 0 Z " fill="#E8BB1D" transform="translate(154,417)"/>
<path d="M0 0 C3.2542015 2.83430453 4.5206753 4.68607774 5 9 C4.01 9 3.02 9 2 9 C0.50178941 5.62902617 0 3.79557881 0 0 Z " fill="#F7E023" transform="translate(820,411)"/>
<path d="M0 0 C0.33 0 0.66 0 1 0 C2.42857143 8.57142857 2.42857143 8.57142857 0 12 C-1.31157516 9.37684968 -0.89649988 7.76966564 -0.5625 4.875 C-0.46066406 3.96492187 -0.35882813 3.05484375 -0.25390625 2.1171875 C-0.17011719 1.41851563 -0.08632812 0.71984375 0 0 Z " fill="#EBB31C" transform="translate(196,564)"/>
<path d="M0 0 C2.5625 2.125 2.5625 2.125 5 5 C4.8125 8.3125 4.8125 8.3125 4 11 C1.6870518 8.6870518 1.50419025 7.52095125 0.875 4.375 C0.70742188 3.55773437 0.53984375 2.74046875 0.3671875 1.8984375 C0.24601563 1.27195312 0.12484375 0.64546875 0 0 Z " fill="#FAE824" transform="translate(816,399)"/>
<path d="M0 0 C2.18975773 3.28463659 2.99806563 6.20696275 4 10 C2.68 9.34 1.36 8.68 0 8 C0 5.36 0 2.72 0 0 Z " fill="#F1DC21" transform="translate(854,367)"/>
<path d="M0 0 C4.05606165 0.46800711 7.46588679 0.87953208 11 3 C7.30581799 4.231394 4.7943739 3.64432764 1 3 C0.67 2.01 0.34 1.02 0 0 Z " fill="#F5E426" transform="translate(627,157)"/>
<path d="M0 0 C-1.98 0.66 -3.96 1.32 -6 2 C-6 2.66 -6 3.32 -6 4 C-7.32 4 -8.64 4 -10 4 C-10 3.34 -10 2.68 -10 2 C-3.375 -1.125 -3.375 -1.125 0 0 Z " fill="#F4D020" transform="translate(638,803)"/>
<path d="M0 0 C2.97 1.65 5.94 3.3 9 5 C8.67 5.66 8.34 6.32 8 7 C7.01 6.67 6.02 6.34 5 6 C5 5.34 5 4.68 5 4 C2.525 3.01 2.525 3.01 0 2 C0 1.34 0 0.68 0 0 Z " fill="#161309" transform="translate(672,228)"/>
<path d="M0 0 C0.33 0.66 0.66 1.32 1 2 C1.66 2.33 2.32 2.66 3 3 C2.34 3.66 1.68 4.32 1 5 C0.34 5 -0.32 5 -1 5 C-2.62514468 6.45833358 -2.62514468 6.45833358 -4 8 C-2.87548273 5.0280615 -1.77706209 2.66559313 0 0 Z " fill="#FAE123" transform="translate(788,670)"/>
<path d="M0 0 C0.66 0.66 1.32 1.32 2 2 C1.625 5.625 1.625 5.625 1 9 C0.01 9 -0.98 9 -2 9 C-1.34 6.03 -0.68 3.06 0 0 Z " fill="#17100B" transform="translate(867,604)"/>
<path d="M0 0 C0.99 0 1.98 0 3 0 C2.34 2.31 1.68 4.62 1 7 C0.01 6.01 -0.98 5.02 -2 4 C-1.34 2.68 -0.68 1.36 0 0 Z " fill="#F0C21D" transform="translate(212,382)"/>
<path d="M0 0 C0.66 0.33 1.32 0.66 2 1 C2.75 3.375 2.75 3.375 3 6 C2.01 7.485 2.01 7.485 1 9 C-1.125 2.25 -1.125 2.25 0 0 Z " fill="#110E0A" transform="translate(860,377)"/>
<path d="M0 0 C1.09658936 3.28976808 0.79953138 4.71303767 0 8 C-0.99 7.34 -1.98 6.68 -3 6 C-2.67 4.68 -2.34 3.36 -2 2 C-1.34 2 -0.68 2 0 2 C0 1.34 0 0.68 0 0 Z " fill="#F4B21D" transform="translate(380,687)"/>
<path d="M0 0 C3.34373475 0.55728913 6.03312999 1.35173889 9 3 C9 3.66 9 4.32 9 5 C5.51694958 4.35499066 2.93797836 2.95865224 0 1 C0 0.67 0 0.34 0 0 Z " fill="#191209" transform="translate(457,683)"/>
<path d="M0 0 C0 0.66 0 1.32 0 2 C-2.31 2 -4.62 2 -7 2 C-7 1.34 -7 0.68 -7 0 C-4.3333581 -1.33332095 -2.83319697 -0.67102033 0 0 Z " fill="#F1D523" transform="translate(582,145)"/>
</svg>
