<svg xmlns="http://www.w3.org/2000/svg" version="1.1" xmlns:xlink="http://www.w3.org/1999/xlink" width="1500" height="134" viewBox="0 0 1500 134"><svg xml:space="preserve" width="1500" height="134" data-version="2" data-id="lg_UlesOqtOochSwkODmZ" viewBox="0 0 569 134" x="0" y="0"><rect width="100%" height="100%" fill="transparent"></rect><path d="M199.655 101.8h-49.09V23.27h9.82v70.46h39.27z"></path><rect width="49.09" height="78.53" x="-24.55" y="-39.27" fill="none" rx="0" ry="0" transform="translate(175.61 63.03)"></rect><path d="M225.085 103.11q-5.89 0-10.22-2.26-4.34-2.26-6.68-6.19-2.35-3.93-2.35-8.89 0-5.29 3.11-9.76t9.63-7.17q6.51-2.7 16.71-2.7h9.82l-.98.98V63.9q0-7.09-2.84-10.88-2.83-3.79-9.49-3.79-6.27 0-9.65 3.25-3.38 3.24-3.6 8.69l-10.31-2.34q.49-4.75 3.63-8.65 3.13-3.89 8.4-6.24 5.26-2.35 12.19-2.35 7.14 0 11.64 2.7 4.5 2.7 6.63 7.78 2.12 5.07 2.12 12.21v26.89q0 1.8.52 2.4.52.6 2.21.6h3.33v7.63h-5.84q-3.71 0-6.22-2.31-2.5-2.32-2.5-5.87v-4.14h1.36q-.87 2.29-2.51 4.66-1.64 2.37-4.14 4.42-2.51 2.04-5.98 3.3-3.46 1.25-7.99 1.25m2.08-7.63q4.52 0 8.39-2.24 3.88-2.23 6.25-7.01 2.37-4.77 2.37-12.4v-.49h-9.21q-7.26 0-11.43 1.9-4.17 1.91-5.92 4.72-1.74 2.81-1.74 5.59t1.25 5.02q1.26 2.24 3.76 3.57 2.51 1.34 6.28 1.34"></path><rect width="53.07" height="61.52" x="-26.54" y="-30.76" fill="none" rx="0" ry="0" transform="translate(232.87 72.85)"></rect><path d="M313.245 101.8h-47.67v-7.85l35.34-43.19h-33.92V42.9h44.94v7.86l-35.89 43.19h37.2z"></path><rect width="47.67" height="58.9" x="-23.84" y="-29.45" fill="none" rx="0" ry="0" transform="translate(289.91 72.85)"></rect><path d="M336.985 123.07h-9.38v-7.63h8.95q.98 0 1.52-.63.55-.63 1.04-1.99l4.25-12.16-.92 4.2-23.67-61.96h10.25l18.76 54.27-2.02-.49 18.71-53.78h10.14l-28.08 73.58q-1.15 2.99-3.88 4.79-2.72 1.8-5.67 1.8"></path><rect width="55.84" height="80.17" x="-27.92" y="-40.09" fill="none" rx="0" ry="0" transform="translate(347.2 83.48)"></rect><path d="M412.865 103.11q-5.78 0-11.45-2.89-5.67-2.89-8.56-9.76l.49-.44v11.78h-8.62V20h9.16v35.17l-.81-.87q2.4-6.43 7.96-9.57 5.56-3.14 11.83-3.14 7.2 0 12.66 3.77 5.45 3.76 8.5 10.69 3.06 6.92 3.06 16.36 0 9.43-3.08 16.33-3.08 6.9-8.54 10.64-5.45 3.73-12.6 3.73m-2.5-7.63q7.3 0 11.99-6.03 4.69-6.02 4.69-17.26 0-10.91-4.52-16.93-4.53-6.03-12.06-6.03-4.58 0-8.42 2.4-3.85 2.4-6.14 7.47-2.29 5.07-2.29 13.09 0 11.84 4.91 17.56 4.91 5.73 11.84 5.73"></path><rect width="52.36" height="83.11" x="-26.18" y="-41.55" fill="none" rx="0" ry="0" transform="translate(411.4 62.05)"></rect><path d="M468.135 103.11q-6.16 0-10.69-2.78-4.52-2.78-6.98-7.96-2.45-5.18-2.45-12.38V42.9h9.16v36.38q0 7.2 2.73 11.7 2.72 4.5 9.81 4.5 5.29 0 9.17-2.73 3.87-2.73 6.02-8.18 2.16-5.45 2.16-13.63V42.9h9.16v58.9h-8.62V87.95l.38 2.4q-2.29 5.46-7.39 9.11-5.1 3.65-12.46 3.65"></path><rect width="48.21" height="60.21" x="-24.11" y="-30.11" fill="none" rx="0" ry="0" transform="translate(472.62 73.5)"></rect><path d="M536.655 124.38h-3.38q-13.14 0-19.36-3.68-6.22-3.68-6.22-11.37 0-4.36 2.24-7.8 2.23-3.43 7.74-5.29-2.07-1.25-3.38-3.33-1.31-2.07-1.31-4.63 0-3.05 1.91-5.48 1.91-2.43 5.45-3.46-4.36-2.57-6.79-6.96-2.42-4.39-2.42-10.22 0-6.33 2.81-10.94 2.8-4.61 8.01-7.12t12.41-2.51q7.2 0 12.46 2.51 5.27 2.51 8.13 7.15 2.86 4.63 2.86 11.01 0 6.28-2.86 10.83t-8.15 7.04q-5.3 2.48-12.6 2.48h-5.08q-6.87 0-6.87 4.09 0 3.87 6.66 3.87h11.78q6.98 0 11.26 1.61 4.28 1.61 6.54 4.14 2.27 2.54 3.08 5.48.82 2.95.82 5.62 0 8.67-6.27 12.82-6.27 4.14-19.47 4.14m-3.38-7.3h3.38q16.25 0 16.25-9.71 0-4.04-2.91-6.6-2.92-2.56-9.96-2.56h-10.14q-5.46 0-9.11 2.2-3.65 2.21-3.65 7.23 0 4.8 3.95 7.12 3.95 2.32 12.19 2.32m1.09-40.91q6.93 0 10.64-3.57 3.7-3.57 3.7-10.34 0-6.7-3.7-10.41-3.71-3.71-10.64-3.71-6.87 0-10.53 3.68-3.65 3.68-3.65 10.44 0 6.77 3.65 10.34 3.66 3.57 10.53 3.57m16.96-28.41h-7.25v-5.84q0-3.54 2.62-5.86 2.61-2.32 6.1-2.32h7.09v7.64h-5.83q-1.69 0-2.21.6t-.52 2.4z"></path><rect width="54.7" height="90.64" x="-27.35" y="-45.32" fill="none" rx="0" ry="0" transform="translate(535.54 79.56)"></rect><path d="m75.08 26.238 4.527-15.365a4.657 4.657 0 0 0-.532-9.27 4.657 4.657 0 0 0-2.458 8.623L72.133 25.42a53.18 53.18 0 0 0-25.9-.044l-4.456-15.307a4.642 4.642 0 0 0-2.673-8.465 4.657 4.657 0 0 0-.26 9.299L43.3 26.18C18.023 34.037 2.266 59.17 6.207 85.345c3.942 26.176 26.403 45.553 52.875 45.614 26.47 0 48.972-19.325 52.969-45.49 3.997-26.166-11.71-51.329-36.972-59.231M59.082 126.806c-31.922 0-46.482-32.843-46.482-32.843-14.028-28.084 38.275-9.285 46.482 3.709 7.43-12.62 58.21-32.656 46.54-3.709 0 0-14.603 32.843-46.54 32.843"></path><circle r="3.25" transform="translate(43.75 98.16)scale(1.4373)"></circle><circle r="3.25" transform="translate(74.42 98.16)scale(1.4373)"></circle><path d="m59.082 101.236-10.45 6.18h20.9z"></path><path d="M79.247 106.583a32.196 32.196 0 0 1-40.287-.014 1.092 1.092 0 1 0-1.366 1.696c12.562 10.082 30.442 10.082 43.004 0a1.092 1.092 0 1 0-1.365-1.682"></path></svg></svg>